<?xml version="1.0" standalone="no"?>
<!DOCTYPE svg PUBLIC "-//W3C//DTD SVG 20010904//EN"
 "http://www.w3.org/TR/2001/REC-SVG-20010904/DTD/svg10.dtd">
<svg version="1.0" xmlns="http://www.w3.org/2000/svg"
 width="656.000000pt" height="648.000000pt" viewBox="0 0 656.000000 648.000000"
 preserveAspectRatio="xMidYMid meet">

<g transform="translate(0.000000,648.000000) scale(0.100000,-0.100000)"
fill="#000000" stroke="none">
<path d="M3100 6474 c-520 -46 -828 -126 -1225 -318 -333 -161 -601 -351 -866
-616 -295 -294 -514 -617 -679 -1000 -324 -757 -344 -1608 -54 -2385 421
-1125 1462 -1929 2657 -2050 182 -19 482 -19 664 0 1010 103 1922 694 2436
1580 369 637 507 1428 376 2158 -116 647 -423 1233 -888 1697 -516 515 -1178
835 -1891 915 -136 15 -447 26 -530 19z m643 -308 c179 -32 234 -45 402 -98
725 -225 1345 -743 1708 -1428 362 -684 433 -1513 191 -2261 -356 -1106 -1359
-1907 -2514 -2009 -884 -78 -1744 241 -2361 876 -763 786 -1022 1934 -672
2972 296 878 1009 1577 1888 1850 161 50 218 65 370 92 191 34 263 39 560 35
250 -3 296 -6 428 -29z"/>
<path d="M3040 6004 c-401 -47 -684 -126 -992 -279 -673 -336 -1190 -951
-1398 -1665 -77 -264 -100 -418 -107 -701 -8 -314 17 -533 91 -800 266 -966
1039 -1709 2016 -1938 211 -49 363 -65 615 -65 252 0 404 16 615 65 977 229
1750 972 2016 1938 74 267 99 486 91 800 -7 283 -30 437 -107 701 -83 286
-235 592 -412 832 -392 532 -950 901 -1583 1048 -200 47 -331 61 -575 65 -129
2 -251 1 -270 -1z m-1511 -1212 l164 -84 -7 -1051 -7 -1052 503 -510 c824
-834 956 -970 953 -974 -2 -2 -95 73 -207 166 -112 93 -401 333 -643 533 -242
201 -474 392 -515 427 -41 34 -153 126 -247 205 l-173 143 -6 1112 c-3 612 -3
1126 1 1143 4 17 10 30 13 28 4 -2 81 -41 171 -86z m689 0 l163 -83 -7 -1052
-7 -1052 417 -679 c388 -631 446 -728 419 -701 -6 6 -257 300 -558 655 -301
355 -563 662 -581 683 l-34 37 0 1133 c0 624 3 1137 7 1141 4 3 9 5 12 4 3 -2
79 -40 169 -86z m2322 -1054 l-1 -1143 -455 -535 c-251 -294 -498 -584 -549
-645 -101 -119 -179 -206 -172 -190 5 11 575 942 739 1205 l108 175 -5 850
c-3 468 -8 939 -10 1047 -6 197 -6 197 17 212 36 22 312 166 321 166 4 0 7
-514 7 -1142z m650 3 l0 -1140 -202 -167 c-112 -93 -309 -256 -438 -363 -129
-107 -311 -259 -405 -336 -93 -78 -278 -231 -410 -340 -132 -109 -262 -217
-289 -239 -27 -22 -47 -35 -45 -29 2 6 277 287 610 625 333 337 660 669 728
738 l122 125 -6 270 c-2 149 -8 619 -11 1046 l-6 776 169 86 c92 48 171 86
176 87 4 0 7 -513 7 -1139z m-2380 869 c57 -135 113 -270 125 -300 13 -30 64
-153 114 -274 l92 -218 9 -312 c11 -356 47 -1621 57 -1986 3 -135 3 -243 0
-240 -4 4 -406 1023 -498 1265 -18 48 -19 92 -19 1190 0 661 4 1135 9 1130 5
-6 55 -120 111 -255z m976 -2205 c-41 -104 -112 -284 -157 -400 -45 -115 -128
-327 -185 -470 l-103 -260 0 95 c-1 91 6 354 48 1815 l19 640 35 80 c19 44
110 260 202 480 92 220 177 420 189 445 l21 45 3 -1140 2 -1140 -74 -190z"/>
</g>
</svg>
